<?xml version='1.0' encoding='utf-8'?>
<svg xmlns="http://www.w3.org/2000/svg" version="1.1" viewBox="0 0 612 792">
<path d="M 167.2 710.9 c -7.5 -7.4 -1.4 -23.2 11 -28.2 c 5.7 -1.7 18 -8.4 19.2 -9.9 c 2 -2.4 0.8 0.2 10.7 -10.6 c 17.7 -19.2 35.8 -38.1 53.8 -57.1 c 5.7 -6 10.9 -12.8 21.1 -14.1 c -5.4 -4.2 -4 -8.5 -3 -13 c 2.2 -10 4.1 -20.2 6.4 -30.2 c 0.7 -3.1 1.9 -6.6 4 -8.9 c 3.6 -3.9 4.3 -7.9 2 -12.3 c -4.3 -8.5 -5.3 -17.7 -6.7 -26.9 c -0.4 -2.6 -1 -5.4 -2.2 -7.6 c -9.6 -17.2 -10.1 -34.5 -0.6 -51.8 c 1.9 -3.4 2.1 -5.9 -0.6 -9.3 c -2.2 -2.8 -3.2 -6.8 -4.3 -10.4 c -3 -10 -5.9 -20 -8.6 -30.1 c -0.9 -3.3 -1.3 -6.8 -1.4 -10.3 c -0.8 -19.8 -1.4 -39.6 -2 -59.4 c -0.4 -10.8 -1.6 -21.5 2 -32.2 c 1.6 -4.9 3.7 -8.6 8.4 -11 c 2 -1 3.8 -2.6 5.9 -4.1 c -2.3 -3.1 -4.5 -6 -6.7 -8.9 c -8.9 -11.7 -8.9 -24.6 -5 -38 c 1.5 -5.2 4.9 -9 9.6 -11.6 c 11.4 -6.2 23 -8.5 35.1 -1.8 c 1.9 1 3.9 2 5.9 2.7 c 7.1 2.6 10.4 6.6 10.1 15 c -0.2 7 2.9 14.2 5 21.2 c 2.5 8.3 4 16.5 1.4 25 c -0.2 0.6 -0.3 1.3 -0.3 2 c -0.7 9.3 0.6 10.2 9.9 9.2 c 9.9 -1.1 18.4 -4.1 25.5 -12 c 3.9 -4.4 10 -7.1 15.4 -10.1 c 8.1 -4.5 12.3 -12 15.1 -20.2 c 1.1 -3.3 0.2 -7.3 0.6 -10.9 c 0.3 -3.1 1.4 -6.1 1.5 -9.2 c 0.1 -1.8 -0.6 -4 -1.6 -5.5 c -18.2 -25.3 -39.8 -47.8 -60.6 -70.9 c -30.3 -33.7 -60.7 -67.3 -91 -101 c -2.5 -2.8 -4.4 -3.1 -8 -2.2 c -5.4 1.3 -11.1 1.7 -16.6 1.3 c -4.8 -0.3 -8.2 -3.6 -9 -8.7 c -0.8 -4.9 2.7 -7.2 6.3 -9.2 c 8.7 -4.9 16.2 -4.5 23.1 2.8 c 13.9 14.6 27.3 29.6 40.8 44.6 c 40.5 45.2 80.8 90.5 121.2 135.7 c 1.7 1.9 2.9 3.5 6.2 2.4 c 1.5 -0.5 4.1 2.2 6.1 3.7 c 1.5 1.1 2.8 2.4 4.2 3.6 c 5.8 4.6 12.4 8.4 17 14 c 4 4.8 6.6 11.3 8 17.5 c 0.8 3.6 -1.4 8.2 -3.1 12.1 c -3.7 8.7 -10.6 14.9 -17.5 21.1 c -14.9 13.3 -29.6 26.9 -44.7 40 c -4.3 3.7 -9.8 6.2 -15 8.9 c -8.4 4.4 -10.1 7.1 -8.8 16.6 c 1.4 10.2 2.9 20.4 4.4 30.7 c 3.3 23.6 7.5 47.1 6.4 71 c -0.8 16.7 2.6 32.8 6.4 48.9 c 0.9 3.7 1.6 7.6 1.5 11.4 c -0.9 24.4 3.7 48 8.4 71.7 c 1.8 9.1 2.2 18.5 2.5 27.8 c 0.9 34.1 1.5 68.3 2.1 102.4 c 0.1 2.8 -0.4 5.7 -0.9 8.4 c -0.7 3.6 -2.4 6.6 -6.6 7.1 c 1.8 7.1 4 8.8 11 8.8 c 1.8 0 3.9 -0.6 5.4 0.1 c 3.5 1.6 8.5 3.1 9.5 5.8 c 1.6 4.5 0.5 10 0.1 15 c 0 0.7 -2 1.6 -3.3 2 c -1.7 0.5 -3.6 0.9 -5.4 0.9 c -19.3 0.1 -38.7 0 -58 0.1 c -4.1 0 -5.5 -2 -5.6 -5.9 c -0.2 -7.1 1.2 -13.9 4.2 -20.3 c 1.6 -3.4 2.5 -6.8 -0.7 -10.1 c -0.9 -1 -1 -3.1 -1 -4.6 c -0.3 -34.1 -0.4 -68.3 -0.7 -102.4 c 0 -3.7 -1.3 -7.5 -2.4 -11.2 c -1.6 -5.5 -3.6 -10.9 -5.6 -16.6 c 0 0 -0.3 0.5 -0.4 0.9 c -5.1 18.5 -17 33 -27.7 48.2 c -12.1 17.2 -24.4 34.2 -36.8 51.1 c -7.1 9.6 -14.8 18.8 -22.5 28.5 c -9 -5.5 -17.8 -10.8 -26.6 -16.1 c -5 -3 -5.6 -2.5 -7 3.3 c -0.6 2.4 -2 4.9 -3.6 6.8 c -4.2 4.9 -9.4 8.9 -9.6 16.3 c 0 2.1 -3.1 3.9 -3.7 6.2 c -1.4 5.8 -2.5 11.7 -3.2 17.6 c -1 8.7 -3.5 10.3 -11.8 7.4 c -10.2 -3.6 -16.9 -9.7 -17.1 -21.3 c 0 -1.6 -0.4 -3.3 -0.8 -4.9 c -2.9 -9.6 -0.2 -18.4 4.1 -27 z" clip-rule="evenodd" fill-rule="evenodd"/>
</svg>