<?xml version="1.0" encoding="UTF-8" standalone="no"?>
<svg
   xmlns:dc="http://purl.org/dc/elements/1.1/"
   xmlns:cc="http://creativecommons.org/ns#"
   xmlns:rdf="http://www.w3.org/1999/02/22-rdf-syntax-ns#"
   xmlns:svg="http://www.w3.org/2000/svg"
   xmlns="http://www.w3.org/2000/svg"
   viewBox="0 0 1356.0133 1356.0133"
   height="1356.0133"
   width="1356.0133"
   xml:space="preserve"
   id="svg2"
   version="1.1"><metadata
     id="metadata8"><rdf:RDF><cc:Work
         rdf:about=""><dc:format>image/svg+xml</dc:format><dc:type
           rdf:resource="http://purl.org/dc/dcmitype/StillImage" /></cc:Work></rdf:RDF></metadata><defs
     id="defs6"><clipPath
       id="clipPath18"
       clipPathUnits="userSpaceOnUse"><path
         id="path16"
         d="M 0,1017.008 H 1017.008 V 0 H 0 Z" /></clipPath></defs><g
     transform="matrix(1.3333333,0,0,-1.3333333,0,1356.0133)"
     id="g10"><g
       id="g12"><g
         clip-path="url(#clipPath18)"
         id="g14"><g
           transform="translate(641.6465,403.2151)"
           id="g20"><path
             id="path22"
             style="fill:#000000;fill-opacity:1;fill-rule:nonzero;stroke:none"
             d="m 0,0 c 89.803,50.008 150.563,145.883 150.563,255.965 0,161.707 -131.089,292.796 -292.795,292.796 -161.707,0 -292.796,-131.089 -292.796,-292.796 0,-111.907 62.79,-209.136 155.052,-258.417 -88.15,-17.214 -154.68,-94.851 -154.68,-188.04 v -147.692 h 584.847 v 169.651 C 150.191,-81.419 84.529,-9.655 0,0" /></g><g
           transform="translate(540.6495,519.6535)"
           id="g24"><path
             id="path26"
             style="fill:#ffffff;fill-opacity:1;fill-rule:nonzero;stroke:none"
             d="m 0,0 c 0,-26.3 -21.321,-47.621 -47.621,-47.621 -26.301,0 -47.621,21.321 -47.621,47.621 0,26.3 21.32,47.621 47.621,47.621 C -21.321,47.621 0,26.3 0,0 m -5.075,65.595 h -86.15 v 8.615 c 0,14.659 1.661,26.561 4.987,35.707 3.323,9.143 8.275,17.493 14.85,25.052 6.574,7.556 21.346,20.858 44.322,39.902 12.243,9.975 18.364,19.118 18.364,27.432 0,8.31 -2.459,14.772 -7.368,19.384 -4.914,4.608 -12.356,6.914 -22.332,6.914 -10.733,0 -19.611,-3.553 -26.638,-10.655 -7.029,-7.106 -11.527,-19.497 -13.49,-37.181 l -87.964,10.882 c 3.022,32.342 14.771,58.379 35.254,78.103 20.478,19.724 51.878,29.586 94.199,29.586 32.947,0 59.547,-6.88 79.802,-20.631 27.507,-18.591 41.262,-43.38 41.262,-74.362 0,-12.848 -3.553,-25.243 -10.655,-37.181 C 66.262,155.221 51.752,140.637 29.839,123.407 14.571,111.313 4.935,101.603 0.932,94.275 -3.074,86.941 -5.075,77.384 -5.075,65.595" /></g></g></g></g></svg>